0
SECTION
2
HEADER
9
$INSUNITS
70
4
9
$ACADVER
1
AC1014
9
$HANDSEED
5
FFFF
0
ENDSEC
0
SECTION
2
TABLES
0
TABLE
2
VPORT
5
8
100
AcDbSymbolTable
0
ENDTAB
0
TABLE
2
LTYPE
5
5
100
AcDbSymbolTable
0
LTYPE
5
14
100
AcDbSymbolTableRecord
100
AcDbLinetypeTableRecord
2
BYBLOCK
70
0
0
LTYPE
5
15
100
AcDbSymbolTableRecord
100
AcDbLinetypeTableRecord
2
BYLAYER
70
0
0
ENDTAB
0
TABLE
2
LAYER
5
2
100
AcDbSymbolTable
70
2
0
LAYER
5
50
100
AcDbSymbolTableRecord
100
AcDbLayerTableRecord
2
0
70
0
6
CONTINUOUS
0
ENDTAB
0
TABLE
2
STYLE
5
3
100
AcDbSymbolTable
70
1
0
STYLE
5
11
100
AcDbSymbolTableRecord
100
AcDbTextStyleTableRecord
2
STANDARD
70
0
0
ENDTAB
0
TABLE
2
VIEW
5
6
100
AcDbSymbolTable
70
0
0
ENDTAB
0
TABLE
2
UCS
5
7
100
AcDbSymbolTable
70
0
0
ENDTAB
0
TABLE
2
APPID
5
9
100
AcDbSymbolTable
70
2
0
APPID
5
12
100
AcDbSymbolTableRecord
100
AcDbRegAppTableRecord
2
ACAD
70
0
0
ENDTAB
0
TABLE
2
DIMSTYLE
5
A
100
AcDbSymbolTable
70
1
0
ENDTAB
0
TABLE
2
BLOCK_RECORD
5
1
100
AcDbSymbolTable
70
1
0
BLOCK_RECORD
5
1F
100
AcDbSymbolTableRecord
100
AcDbBlockTableRecord
2
*MODEL_SPACE
0
BLOCK_RECORD
5
1B
100
AcDbSymbolTableRecord
100
AcDbBlockTableRecord
2
*PAPER_SPACE
0
ENDTAB
0
ENDSEC
0
SECTION
2
BLOCKS
0
BLOCK
5
20
100
AcDbEntity
100
AcDbBlockBegin
2
*MODEL_SPACE
0
ENDBLK
5
21
100
AcDbEntity
100
AcDbBlockEnd
0
BLOCK
5
1C
100
AcDbEntity
100
AcDbBlockBegin
2
*PAPER_SPACE
0
ENDBLK
5
1D
100
AcDbEntity
100
AcDbBlockEnd
0
ENDSEC
0
SECTION
2
ENTITIES
0
LWPOLYLINE
5
100
100
AcDbEntity
8
0
100
AcDbPolyline
90
10
70
1
43
0.0
10
-42
20
-22.999999999999972
10
-41.999999999999993
20
62.999999999999972
10
106.00000157952309
20
62.999999999999986
10
117.42135617356996
20
49.41194718786727
42
0.0573194247483284
10
117.8261577324473
20
49.011435956597282
10
167.88000285952711
20
49.011435956597268
10
167.88000285952711
20
-9.0000001490116119
10
117.84083726885946
20
-9.0000001490115853
42
0.059192690015120737
10
117.42135617356995
20
-9.4119471878672343
10
106.00000157952309
20
-22.999999999999968
0
LWPOLYLINE
5
101
100
AcDbEntity
8
0
100
AcDbPolyline
90
4
70
1
43
0.0
10
-14.00000014901158
20
43.700000000000031
42
-0.99999999999999989
10
-14.00000014901158
20
46.700000000000031
10
-13.000000193715096
20
46.700000000000031
42
-0.99999999999999989
10
-13.000000193715096
20
43.700000000000031
0
CIRCLE
5
102
100
AcDbEntity
8
0
100
AcDbCircle
10
103.77712176203707
20
2.1586563603483166
30
0
40
1.7500000000000071
0
CIRCLE
5
103
100
AcDbEntity
8
0
100
AcDbCircle
10
19.265483712619407
20
59.158656609944273
30
0
40
1.7500000000000071
0
CIRCLE
5
104
100
AcDbEntity
8
0
100
AcDbCircle
10
103.77712176203769
20
38.158656360348353
30
0
40
2.0852400232238821
0
CIRCLE
5
105
100
AcDbEntity
8
0
100
AcDbCircle
10
27.277120793461247
20
-18.841343639650372
30
0
40
1.749999999999998
0
CIRCLE
5
106
100
AcDbEntity
8
0
100
AcDbCircle
10
158.00000235438347
20
45.000000670552254
30
0
40
1.0000000149011612
0
CIRCLE
5
107
100
AcDbEntity
8
0
100
AcDbCircle
10
158.00000235438347
20
-5.000000074505806
30
0
40
1.0000000149011612
0
CIRCLE
5
108
100
AcDbEntity
8
0
100
AcDbCircle
10
165.0000024586916
20
45.000000670552254
30
0
40
1.0000000149011612
0
CIRCLE
5
109
100
AcDbEntity
8
0
100
AcDbCircle
10
165.0000024586916
20
-5.000000074505806
30
0
40
1.0000000149011612
0
CIRCLE
5
110
100
AcDbEntity
8
0
100
AcDbCircle
10
-0.54577586474998863
20
54.999999999999972
30
0
40
1.5000000000000011
0
LWPOLYLINE
5
111
100
AcDbEntity
8
0
100
AcDbPolyline
90
4
70
1
43
0.0
10
12.999999985098869
20
43.700000000000031
42
-0.99999999999999989
10
12.999999985098869
20
46.700000000000031
10
13.999999940395353
20
46.700000000000031
42
-0.99999999999999989
10
13.999999940395353
20
43.700000000000031
0
CIRCLE
5
112
100
AcDbEntity
8
0
100
AcDbCircle
10
149.00000222027327
20
44.000845728676012
30
0
40
1.5000000000000036
0
LWPOLYLINE
5
113
100
AcDbEntity
8
0
100
AcDbPolyline
90
4
70
1
43
0.0
10
-6.6068376620638647
20
28.700000000000038
10
-6.6068376620638514
20
39.700000000000053
10
-30.484714067436443
20
39.700000000000053
10
-30.484714067436446
20
28.700000000000045
0
CIRCLE
5
114
100
AcDbEntity
8
0
100
AcDbCircle
10
-36.54577586474997
20
54.999999999999986
30
0
40
1.5000000000000036
0
CIRCLE
5
115
100
AcDbEntity
8
0
100
AcDbCircle
10
133.00000198185444
20
-4.0000000596046448
30
0
40
1.5000000000000036
0
CIRCLE
5
116
100
AcDbEntity
8
0
100
AcDbCircle
10
133.00000198185469
20
44.000845728676097
30
0
40
1.5000000000000036
0
LWPOLYLINE
5
117
100
AcDbEntity
8
0
100
AcDbPolyline
90
4
70
1
43
0.0
10
19.999999552965186
20
-6.4999998547136784
42
-0.99999999999999989
10
19.999999552965186
20
-3.4999999217689037
10
21.999999508261713
20
-3.4999999217689037
42
-0.99999999999999989
10
21.999999508261713
20
-6.4999998547136784
0
LWPOLYLINE
5
118
100
AcDbEntity
8
0
100
AcDbPolyline
90
4
70
1
43
0.0
10
-27.005205266491807
20
-6.499999999999976
42
-0.99999999999999989
10
-27.005205266491817
20
-3.4999999999999734
10
-24.999999552965196
20
-3.4999999999999734
42
-0.99999999999999989
10
-24.999999552965186
20
-6.499999999999976
0
CIRCLE
5
119
100
AcDbEntity
8
0
100
AcDbCircle
10
-0.54577586474998707
20
-14.999999999999973
30
0
40
1.5000000000000631
0
CIRCLE
5
120
100
AcDbEntity
8
0
100
AcDbCircle
10
-36.545775864749992
20
-14.999999999999975
30
0
40
1.4999999999999991
0
CIRCLE
5
121
100
AcDbEntity
8
0
100
AcDbCircle
10
149.00000222027302
20
-4.0000000596046448
30
0
40
1.5000000000000036
0
ENDSEC
0
SECTION
2
OBJECTS
0
DICTIONARY
5
C
100
AcDbDictionary
3
ACAD_GROUP
350
D
3
ACAD_MLINESTYLE
350
17
0
DICTIONARY
5
D
100
AcDbDictionary
0
DICTIONARY
5
1A
330
C
100
AcDbDictionary
0
DICTIONARY
5
17
100
AcDbDictionary
0
ENDSEC
0
EOF
